# xmcd
#
# Track frame offsets: 
#        150
#        15485
#        29268
#        46312
#        62327
#        75629
#        86407
#        104242
#        114252
#        135281
#        149889
#        167309
#        180675
#        202444
#        223249
#        238966
#        258355
#        269970
#        286677
#        305825
#        319771
#        330755
#
# Disc length: 4556 seconds
#
# Revision: 0
# Processed by: cddbd v1.5.2PL0 Copyright (c) Steve Scherf et al.
# Submitted via: ExactAudioCopy v0.99pb4
#
DISCID=4611ca16
DTITLE=Dwight Yoakam - Reprise Please Baby
DYEAR=1900
DGENRE=Country
TTITLE0=1. Only Want You More
TTITLE1=2. Same Fool
TTITLE2=3. Things Change
TTITLE3=4. These Arms
TTITLE4=5. A Long Way Home
TTITLE5=6. Crazy Little Thing Called Love
TTITLE6=7. Thinking About Leaving
TTITLE7=8. New San Antonio Rose (Asleep At The Wheel featuring Dwight 
TTITLE7=Yoakam)
TTITLE8=9. Two Doors Down (Acoustic)
TTITLE9=10. Bury Me (Acoustic)
TTITLE10=11. Love Caught Up To Me
TTITLE11=12. What Do You Know About Love
TTITLE12=13. Free To Go
TTITLE13=14. A Place To Cry
TTITLE14=15. I Want You To Want Me
TTITLE15=16. Alright, I'm Wrong (with Buck Owens)
TTITLE16=17. Who At The Door is Standing (with Bekka Bramlett)
TTITLE17=18. The First Thing Smokin'
TTITLE18=19. I'm Bad, I'm Nationwide
TTITLE19=20. Louisville
TTITLE20=21. Sittin' Pretty
TTITLE21=22. Mercury Blues
EXTD=
EXTT0=
EXTT1=
EXTT2=
EXTT3=
EXTT4=
EXTT5=
EXTT6=
EXTT7=
EXTT8=
EXTT9=
EXTT10=
EXTT11=
EXTT12=
EXTT13=
EXTT14=
EXTT15=
EXTT16=
EXTT17=
EXTT18=
EXTT19=
EXTT20=
EXTT21=
PLAYORDER=
